M48
; DRILL file {KiCad (5.1.5)-3} date 07/01/2020 22:17:15
; FORMAT={3:3/ absolute / metric / suppress leading zeros}
; #@! TF.CreationDate,2020-01-07T22:17:15+01:00
; #@! TF.GenerationSoftware,Kicad,Pcbnew,(5.1.5)-3
FMAT,2
METRIC,TZ
T1C0.400
T2C0.600
T3C1.016
T4C1.520
%
G90
G05
T1
X42545Y-46990
T2
X29845Y-36195
X31115Y-36195
X32385Y-36195
T3
X24765Y-31750
X24765Y-34290
X24765Y-36830
X24765Y-39370
X24765Y-41910
X24765Y-44450
X24765Y-46990
X24765Y-49530
X47625Y-31750
X47625Y-34290
X47625Y-36830
X47625Y-39370
X47625Y-41910
X47625Y-44450
X47625Y-46990
X47625Y-49530
T4
X31115Y-28575
X36195Y-28575
X41275Y-28575
T0
M30
