G04 #@! TF.GenerationSoftware,KiCad,Pcbnew,(5.1.5)-3*
G04 #@! TF.CreationDate,2020-01-07T22:17:17+01:00*
G04 #@! TF.ProjectId,WirelessDS18B20,57697265-6c65-4737-9344-533138423230,rev?*
G04 #@! TF.SameCoordinates,Original*
G04 #@! TF.FileFunction,Legend,Top*
G04 #@! TF.FilePolarity,Positive*
%FSLAX46Y46*%
G04 Gerber Fmt 4.6, Leading zero omitted, Abs format (unit mm)*
G04 Created by KiCad (PCBNEW (5.1.5)-3) date 2020-01-07 22:17:17*
%MOMM*%
%LPD*%
G04 APERTURE LIST*
%ADD10C,0.150000*%
%ADD11C,0.200000*%
%ADD12C,0.300000*%
%ADD13C,0.120000*%
G04 APERTURE END LIST*
D10*
X31575952Y-25360380D02*
X31575952Y-26074666D01*
X31528333Y-26217523D01*
X31433095Y-26312761D01*
X31290238Y-26360380D01*
X31195000Y-26360380D01*
X32528333Y-26360380D02*
X32052142Y-26360380D01*
X32052142Y-25360380D01*
X33433095Y-26265142D02*
X33385476Y-26312761D01*
X33242619Y-26360380D01*
X33147380Y-26360380D01*
X33004523Y-26312761D01*
X32909285Y-26217523D01*
X32861666Y-26122285D01*
X32814047Y-25931809D01*
X32814047Y-25788952D01*
X32861666Y-25598476D01*
X32909285Y-25503238D01*
X33004523Y-25408000D01*
X33147380Y-25360380D01*
X33242619Y-25360380D01*
X33385476Y-25408000D01*
X33433095Y-25455619D01*
X34147380Y-25360380D02*
X34147380Y-26074666D01*
X34099761Y-26217523D01*
X34004523Y-26312761D01*
X33861666Y-26360380D01*
X33766428Y-26360380D01*
X35099761Y-26360380D02*
X34623571Y-26360380D01*
X34623571Y-25360380D01*
X36004523Y-26265142D02*
X35956904Y-26312761D01*
X35814047Y-26360380D01*
X35718809Y-26360380D01*
X35575952Y-26312761D01*
X35480714Y-26217523D01*
X35433095Y-26122285D01*
X35385476Y-25931809D01*
X35385476Y-25788952D01*
X35433095Y-25598476D01*
X35480714Y-25503238D01*
X35575952Y-25408000D01*
X35718809Y-25360380D01*
X35814047Y-25360380D01*
X35956904Y-25408000D01*
X36004523Y-25455619D01*
X36718809Y-25360380D02*
X36718809Y-26074666D01*
X36671190Y-26217523D01*
X36575952Y-26312761D01*
X36433095Y-26360380D01*
X36337857Y-26360380D01*
X37671190Y-26360380D02*
X37195000Y-26360380D01*
X37195000Y-25360380D01*
X38575952Y-26265142D02*
X38528333Y-26312761D01*
X38385476Y-26360380D01*
X38290238Y-26360380D01*
X38147380Y-26312761D01*
X38052142Y-26217523D01*
X38004523Y-26122285D01*
X37956904Y-25931809D01*
X37956904Y-25788952D01*
X38004523Y-25598476D01*
X38052142Y-25503238D01*
X38147380Y-25408000D01*
X38290238Y-25360380D01*
X38385476Y-25360380D01*
X38528333Y-25408000D01*
X38575952Y-25455619D01*
X39290238Y-25360380D02*
X39290238Y-26074666D01*
X39242619Y-26217523D01*
X39147380Y-26312761D01*
X39004523Y-26360380D01*
X38909285Y-26360380D01*
X40242619Y-26360380D02*
X39766428Y-26360380D01*
X39766428Y-25360380D01*
X41147380Y-26265142D02*
X41099761Y-26312761D01*
X40956904Y-26360380D01*
X40861666Y-26360380D01*
X40718809Y-26312761D01*
X40623571Y-26217523D01*
X40575952Y-26122285D01*
X40528333Y-25931809D01*
X40528333Y-25788952D01*
X40575952Y-25598476D01*
X40623571Y-25503238D01*
X40718809Y-25408000D01*
X40861666Y-25360380D01*
X40956904Y-25360380D01*
X41099761Y-25408000D01*
X41147380Y-25455619D01*
X30781904Y-48681142D02*
X30734285Y-48728761D01*
X30591428Y-48776380D01*
X30496190Y-48776380D01*
X30353333Y-48728761D01*
X30258095Y-48633523D01*
X30210476Y-48538285D01*
X30162857Y-48347809D01*
X30162857Y-48204952D01*
X30210476Y-48014476D01*
X30258095Y-47919238D01*
X30353333Y-47824000D01*
X30496190Y-47776380D01*
X30591428Y-47776380D01*
X30734285Y-47824000D01*
X30781904Y-47871619D01*
X31639047Y-48109714D02*
X31639047Y-48776380D01*
X31210476Y-48109714D02*
X31210476Y-48633523D01*
X31258095Y-48728761D01*
X31353333Y-48776380D01*
X31496190Y-48776380D01*
X31591428Y-48728761D01*
X31639047Y-48681142D01*
X31972380Y-48109714D02*
X32353333Y-48109714D01*
X32115238Y-47776380D02*
X32115238Y-48633523D01*
X32162857Y-48728761D01*
X32258095Y-48776380D01*
X32353333Y-48776380D01*
X32686666Y-48681142D02*
X32734285Y-48728761D01*
X32686666Y-48776380D01*
X32639047Y-48728761D01*
X32686666Y-48681142D01*
X32686666Y-48776380D01*
X32686666Y-48157333D02*
X32734285Y-48204952D01*
X32686666Y-48252571D01*
X32639047Y-48204952D01*
X32686666Y-48157333D01*
X32686666Y-48252571D01*
X33686666Y-48776380D02*
X33115238Y-48776380D01*
X33400952Y-48776380D02*
X33400952Y-47776380D01*
X33305714Y-47919238D01*
X33210476Y-48014476D01*
X33115238Y-48062095D01*
X34115238Y-48395428D02*
X34877142Y-48395428D01*
X35305714Y-47871619D02*
X35353333Y-47824000D01*
X35448571Y-47776380D01*
X35686666Y-47776380D01*
X35781904Y-47824000D01*
X35829523Y-47871619D01*
X35877142Y-47966857D01*
X35877142Y-48062095D01*
X35829523Y-48204952D01*
X35258095Y-48776380D01*
X35877142Y-48776380D01*
X29020000Y-50378761D02*
X29162857Y-50426380D01*
X29400952Y-50426380D01*
X29496190Y-50378761D01*
X29543809Y-50331142D01*
X29591428Y-50235904D01*
X29591428Y-50140666D01*
X29543809Y-50045428D01*
X29496190Y-49997809D01*
X29400952Y-49950190D01*
X29210476Y-49902571D01*
X29115238Y-49854952D01*
X29067619Y-49807333D01*
X29020000Y-49712095D01*
X29020000Y-49616857D01*
X29067619Y-49521619D01*
X29115238Y-49474000D01*
X29210476Y-49426380D01*
X29448571Y-49426380D01*
X29591428Y-49474000D01*
X30162857Y-50426380D02*
X30067619Y-50378761D01*
X30020000Y-50331142D01*
X29972380Y-50235904D01*
X29972380Y-49950190D01*
X30020000Y-49854952D01*
X30067619Y-49807333D01*
X30162857Y-49759714D01*
X30305714Y-49759714D01*
X30400952Y-49807333D01*
X30448571Y-49854952D01*
X30496190Y-49950190D01*
X30496190Y-50235904D01*
X30448571Y-50331142D01*
X30400952Y-50378761D01*
X30305714Y-50426380D01*
X30162857Y-50426380D01*
X31067619Y-50426380D02*
X30972380Y-50378761D01*
X30924761Y-50283523D01*
X30924761Y-49426380D01*
X31877142Y-50426380D02*
X31877142Y-49426380D01*
X31877142Y-50378761D02*
X31781904Y-50426380D01*
X31591428Y-50426380D01*
X31496190Y-50378761D01*
X31448571Y-50331142D01*
X31400952Y-50235904D01*
X31400952Y-49950190D01*
X31448571Y-49854952D01*
X31496190Y-49807333D01*
X31591428Y-49759714D01*
X31781904Y-49759714D01*
X31877142Y-49807333D01*
X32734285Y-50378761D02*
X32639047Y-50426380D01*
X32448571Y-50426380D01*
X32353333Y-50378761D01*
X32305714Y-50283523D01*
X32305714Y-49902571D01*
X32353333Y-49807333D01*
X32448571Y-49759714D01*
X32639047Y-49759714D01*
X32734285Y-49807333D01*
X32781904Y-49902571D01*
X32781904Y-49997809D01*
X32305714Y-50093047D01*
X33210476Y-50426380D02*
X33210476Y-49759714D01*
X33210476Y-49950190D02*
X33258095Y-49854952D01*
X33305714Y-49807333D01*
X33400952Y-49759714D01*
X33496190Y-49759714D01*
X33829523Y-50331142D02*
X33877142Y-50378761D01*
X33829523Y-50426380D01*
X33781904Y-50378761D01*
X33829523Y-50331142D01*
X33829523Y-50426380D01*
X33829523Y-49807333D02*
X33877142Y-49854952D01*
X33829523Y-49902571D01*
X33781904Y-49854952D01*
X33829523Y-49807333D01*
X33829523Y-49902571D01*
X34258095Y-49521619D02*
X34305714Y-49474000D01*
X34400952Y-49426380D01*
X34639047Y-49426380D01*
X34734285Y-49474000D01*
X34781904Y-49521619D01*
X34829523Y-49616857D01*
X34829523Y-49712095D01*
X34781904Y-49854952D01*
X34210476Y-50426380D01*
X34829523Y-50426380D01*
X35258095Y-50045428D02*
X36020000Y-50045428D01*
X36400952Y-49426380D02*
X37020000Y-49426380D01*
X36686666Y-49807333D01*
X36829523Y-49807333D01*
X36924761Y-49854952D01*
X36972380Y-49902571D01*
X37020000Y-49997809D01*
X37020000Y-50235904D01*
X36972380Y-50331142D01*
X36924761Y-50378761D01*
X36829523Y-50426380D01*
X36543809Y-50426380D01*
X36448571Y-50378761D01*
X36400952Y-50331142D01*
X44069000Y-45847000D02*
X44069000Y-50800000D01*
X28321000Y-45847000D02*
X44069000Y-45847000D01*
X28321000Y-50800000D02*
X28321000Y-45847000D01*
X30879071Y-46188380D02*
X31069547Y-46188380D01*
X31164785Y-46236000D01*
X31260023Y-46331238D01*
X31307642Y-46521714D01*
X31307642Y-46855047D01*
X31260023Y-47045523D01*
X31164785Y-47140761D01*
X31069547Y-47188380D01*
X30879071Y-47188380D01*
X30783833Y-47140761D01*
X30688595Y-47045523D01*
X30640976Y-46855047D01*
X30640976Y-46521714D01*
X30688595Y-46331238D01*
X30783833Y-46236000D01*
X30879071Y-46188380D01*
X31736214Y-46521714D02*
X31736214Y-47521714D01*
X31736214Y-46569333D02*
X31831452Y-46521714D01*
X32021928Y-46521714D01*
X32117166Y-46569333D01*
X32164785Y-46616952D01*
X32212404Y-46712190D01*
X32212404Y-46997904D01*
X32164785Y-47093142D01*
X32117166Y-47140761D01*
X32021928Y-47188380D01*
X31831452Y-47188380D01*
X31736214Y-47140761D01*
X32498119Y-46521714D02*
X32879071Y-46521714D01*
X32640976Y-46188380D02*
X32640976Y-47045523D01*
X32688595Y-47140761D01*
X32783833Y-47188380D01*
X32879071Y-47188380D01*
X33212404Y-47188380D02*
X33212404Y-46521714D01*
X33212404Y-46188380D02*
X33164785Y-46236000D01*
X33212404Y-46283619D01*
X33260023Y-46236000D01*
X33212404Y-46188380D01*
X33212404Y-46283619D01*
X33831452Y-47188380D02*
X33736214Y-47140761D01*
X33688595Y-47093142D01*
X33640976Y-46997904D01*
X33640976Y-46712190D01*
X33688595Y-46616952D01*
X33736214Y-46569333D01*
X33831452Y-46521714D01*
X33974309Y-46521714D01*
X34069547Y-46569333D01*
X34117166Y-46616952D01*
X34164785Y-46712190D01*
X34164785Y-46997904D01*
X34117166Y-47093142D01*
X34069547Y-47140761D01*
X33974309Y-47188380D01*
X33831452Y-47188380D01*
X34593357Y-46521714D02*
X34593357Y-47188380D01*
X34593357Y-46616952D02*
X34640976Y-46569333D01*
X34736214Y-46521714D01*
X34879071Y-46521714D01*
X34974309Y-46569333D01*
X35021928Y-46664571D01*
X35021928Y-47188380D01*
X35926690Y-47188380D02*
X35926690Y-46664571D01*
X35879071Y-46569333D01*
X35783833Y-46521714D01*
X35593357Y-46521714D01*
X35498119Y-46569333D01*
X35926690Y-47140761D02*
X35831452Y-47188380D01*
X35593357Y-47188380D01*
X35498119Y-47140761D01*
X35450500Y-47045523D01*
X35450500Y-46950285D01*
X35498119Y-46855047D01*
X35593357Y-46807428D01*
X35831452Y-46807428D01*
X35926690Y-46759809D01*
X36545738Y-47188380D02*
X36450500Y-47140761D01*
X36402880Y-47045523D01*
X36402880Y-46188380D01*
X37688595Y-47188380D02*
X37688595Y-46188380D01*
X38069547Y-46188380D01*
X38164785Y-46236000D01*
X38212404Y-46283619D01*
X38260023Y-46378857D01*
X38260023Y-46521714D01*
X38212404Y-46616952D01*
X38164785Y-46664571D01*
X38069547Y-46712190D01*
X37688595Y-46712190D01*
X38831452Y-47188380D02*
X38736214Y-47140761D01*
X38688595Y-47093142D01*
X38640976Y-46997904D01*
X38640976Y-46712190D01*
X38688595Y-46616952D01*
X38736214Y-46569333D01*
X38831452Y-46521714D01*
X38974309Y-46521714D01*
X39069547Y-46569333D01*
X39117166Y-46616952D01*
X39164785Y-46712190D01*
X39164785Y-46997904D01*
X39117166Y-47093142D01*
X39069547Y-47140761D01*
X38974309Y-47188380D01*
X38831452Y-47188380D01*
X39498119Y-46521714D02*
X39688595Y-47188380D01*
X39879071Y-46712190D01*
X40069547Y-47188380D01*
X40260023Y-46521714D01*
X41021928Y-47140761D02*
X40926690Y-47188380D01*
X40736214Y-47188380D01*
X40640976Y-47140761D01*
X40593357Y-47045523D01*
X40593357Y-46664571D01*
X40640976Y-46569333D01*
X40736214Y-46521714D01*
X40926690Y-46521714D01*
X41021928Y-46569333D01*
X41069547Y-46664571D01*
X41069547Y-46759809D01*
X40593357Y-46855047D01*
X41498119Y-47188380D02*
X41498119Y-46521714D01*
X41498119Y-46712190D02*
X41545738Y-46616952D01*
X41593357Y-46569333D01*
X41688595Y-46521714D01*
X41783833Y-46521714D01*
X45537380Y-42648095D02*
X44537380Y-42648095D01*
X44537380Y-42410000D01*
X44585000Y-42267142D01*
X44680238Y-42171904D01*
X44775476Y-42124285D01*
X44965952Y-42076666D01*
X45108809Y-42076666D01*
X45299285Y-42124285D01*
X45394523Y-42171904D01*
X45489761Y-42267142D01*
X45537380Y-42410000D01*
X45537380Y-42648095D01*
X44537380Y-41219523D02*
X44537380Y-41410000D01*
X44585000Y-41505238D01*
X44632619Y-41552857D01*
X44775476Y-41648095D01*
X44965952Y-41695714D01*
X45346904Y-41695714D01*
X45442142Y-41648095D01*
X45489761Y-41600476D01*
X45537380Y-41505238D01*
X45537380Y-41314761D01*
X45489761Y-41219523D01*
X45442142Y-41171904D01*
X45346904Y-41124285D01*
X45108809Y-41124285D01*
X45013571Y-41171904D01*
X44965952Y-41219523D01*
X44918333Y-41314761D01*
X44918333Y-41505238D01*
X44965952Y-41600476D01*
X45013571Y-41648095D01*
X45108809Y-41695714D01*
X45537380Y-40108095D02*
X44537380Y-40108095D01*
X44537380Y-39870000D01*
X44585000Y-39727142D01*
X44680238Y-39631904D01*
X44775476Y-39584285D01*
X44965952Y-39536666D01*
X45108809Y-39536666D01*
X45299285Y-39584285D01*
X45394523Y-39631904D01*
X45489761Y-39727142D01*
X45537380Y-39870000D01*
X45537380Y-40108095D01*
X44537380Y-38631904D02*
X44537380Y-39108095D01*
X45013571Y-39155714D01*
X44965952Y-39108095D01*
X44918333Y-39012857D01*
X44918333Y-38774761D01*
X44965952Y-38679523D01*
X45013571Y-38631904D01*
X45108809Y-38584285D01*
X45346904Y-38584285D01*
X45442142Y-38631904D01*
X45489761Y-38679523D01*
X45537380Y-38774761D01*
X45537380Y-39012857D01*
X45489761Y-39108095D01*
X45442142Y-39155714D01*
D11*
X45720000Y-39370000D02*
X46355000Y-39370000D01*
X45720000Y-41910000D02*
X46355000Y-41910000D01*
X45720000Y-49530000D02*
X46355000Y-49530000D01*
X26670000Y-46990000D02*
X26035000Y-46990000D01*
D10*
X27805000Y-46228095D02*
X27852619Y-46132857D01*
X27852619Y-45990000D01*
X27805000Y-45847142D01*
X27709761Y-45751904D01*
X27614523Y-45704285D01*
X27424047Y-45656666D01*
X27281190Y-45656666D01*
X27090714Y-45704285D01*
X26995476Y-45751904D01*
X26900238Y-45847142D01*
X26852619Y-45990000D01*
X26852619Y-46085238D01*
X26900238Y-46228095D01*
X26947857Y-46275714D01*
X27281190Y-46275714D01*
X27281190Y-46085238D01*
X26852619Y-46704285D02*
X27852619Y-46704285D01*
X26852619Y-47275714D01*
X27852619Y-47275714D01*
X26852619Y-47751904D02*
X27852619Y-47751904D01*
X27852619Y-47990000D01*
X27805000Y-48132857D01*
X27709761Y-48228095D01*
X27614523Y-48275714D01*
X27424047Y-48323333D01*
X27281190Y-48323333D01*
X27090714Y-48275714D01*
X26995476Y-48228095D01*
X26900238Y-48132857D01*
X26852619Y-47990000D01*
X26852619Y-47751904D01*
X44537380Y-50768095D02*
X44537380Y-50149047D01*
X44918333Y-50482380D01*
X44918333Y-50339523D01*
X44965952Y-50244285D01*
X45013571Y-50196666D01*
X45108809Y-50149047D01*
X45346904Y-50149047D01*
X45442142Y-50196666D01*
X45489761Y-50244285D01*
X45537380Y-50339523D01*
X45537380Y-50625238D01*
X45489761Y-50720476D01*
X45442142Y-50768095D01*
X44537380Y-49863333D02*
X45537380Y-49530000D01*
X44537380Y-49196666D01*
X44537380Y-48958571D02*
X44537380Y-48339523D01*
X44918333Y-48672857D01*
X44918333Y-48530000D01*
X44965952Y-48434761D01*
X45013571Y-48387142D01*
X45108809Y-48339523D01*
X45346904Y-48339523D01*
X45442142Y-48387142D01*
X45489761Y-48434761D01*
X45537380Y-48530000D01*
X45537380Y-48815714D01*
X45489761Y-48910952D01*
X45442142Y-48958571D01*
D12*
X34302142Y-34460571D02*
X33445000Y-34460571D01*
X33873571Y-34460571D02*
X33873571Y-32960571D01*
X33730714Y-33174857D01*
X33587857Y-33317714D01*
X33445000Y-33389142D01*
X34802142Y-32960571D02*
X35159285Y-34460571D01*
X35445000Y-33389142D01*
X35730714Y-34460571D01*
X36087857Y-32960571D01*
X36659285Y-34460571D02*
X36659285Y-33460571D01*
X36659285Y-32960571D02*
X36587857Y-33032000D01*
X36659285Y-33103428D01*
X36730714Y-33032000D01*
X36659285Y-32960571D01*
X36659285Y-33103428D01*
X37373571Y-34460571D02*
X37373571Y-33460571D01*
X37373571Y-33746285D02*
X37445000Y-33603428D01*
X37516428Y-33532000D01*
X37659285Y-33460571D01*
X37802142Y-33460571D01*
X38873571Y-34389142D02*
X38730714Y-34460571D01*
X38445000Y-34460571D01*
X38302142Y-34389142D01*
X38230714Y-34246285D01*
X38230714Y-33674857D01*
X38302142Y-33532000D01*
X38445000Y-33460571D01*
X38730714Y-33460571D01*
X38873571Y-33532000D01*
X38945000Y-33674857D01*
X38945000Y-33817714D01*
X38230714Y-33960571D01*
X29515714Y-33032000D02*
X29372857Y-32960571D01*
X29158571Y-32960571D01*
X28944285Y-33032000D01*
X28801428Y-33174857D01*
X28730000Y-33317714D01*
X28658571Y-33603428D01*
X28658571Y-33817714D01*
X28730000Y-34103428D01*
X28801428Y-34246285D01*
X28944285Y-34389142D01*
X29158571Y-34460571D01*
X29301428Y-34460571D01*
X29515714Y-34389142D01*
X29587142Y-34317714D01*
X29587142Y-33817714D01*
X29301428Y-33817714D01*
X30230000Y-33460571D02*
X30230000Y-34460571D01*
X30230000Y-33603428D02*
X30301428Y-33532000D01*
X30444285Y-33460571D01*
X30658571Y-33460571D01*
X30801428Y-33532000D01*
X30872857Y-33674857D01*
X30872857Y-34460571D01*
X32230000Y-34460571D02*
X32230000Y-32960571D01*
X32230000Y-34389142D02*
X32087142Y-34460571D01*
X31801428Y-34460571D01*
X31658571Y-34389142D01*
X31587142Y-34317714D01*
X31515714Y-34174857D01*
X31515714Y-33746285D01*
X31587142Y-33603428D01*
X31658571Y-33532000D01*
X31801428Y-33460571D01*
X32087142Y-33460571D01*
X32230000Y-33532000D01*
X40124285Y-32960571D02*
X40624285Y-34460571D01*
X41124285Y-32960571D01*
X42267142Y-34389142D02*
X42124285Y-34460571D01*
X41838571Y-34460571D01*
X41695714Y-34389142D01*
X41624285Y-34317714D01*
X41552857Y-34174857D01*
X41552857Y-33746285D01*
X41624285Y-33603428D01*
X41695714Y-33532000D01*
X41838571Y-33460571D01*
X42124285Y-33460571D01*
X42267142Y-33532000D01*
X43552857Y-34389142D02*
X43410000Y-34460571D01*
X43124285Y-34460571D01*
X42981428Y-34389142D01*
X42910000Y-34317714D01*
X42838571Y-34174857D01*
X42838571Y-33746285D01*
X42910000Y-33603428D01*
X42981428Y-33532000D01*
X43124285Y-33460571D01*
X43410000Y-33460571D01*
X43552857Y-33532000D01*
X34758857Y-37268571D02*
X35116000Y-38768571D01*
X35401714Y-37697142D01*
X35687428Y-38768571D01*
X36044571Y-37268571D01*
X36616000Y-38768571D02*
X36616000Y-37768571D01*
X36616000Y-37268571D02*
X36544571Y-37340000D01*
X36616000Y-37411428D01*
X36687428Y-37340000D01*
X36616000Y-37268571D01*
X36616000Y-37411428D01*
X37330285Y-38768571D02*
X37330285Y-37768571D01*
X37330285Y-38054285D02*
X37401714Y-37911428D01*
X37473142Y-37840000D01*
X37616000Y-37768571D01*
X37758857Y-37768571D01*
X38830285Y-38697142D02*
X38687428Y-38768571D01*
X38401714Y-38768571D01*
X38258857Y-38697142D01*
X38187428Y-38554285D01*
X38187428Y-37982857D01*
X38258857Y-37840000D01*
X38401714Y-37768571D01*
X38687428Y-37768571D01*
X38830285Y-37840000D01*
X38901714Y-37982857D01*
X38901714Y-38125714D01*
X38187428Y-38268571D01*
X39758857Y-38768571D02*
X39616000Y-38697142D01*
X39544571Y-38554285D01*
X39544571Y-37268571D01*
X40901714Y-38697142D02*
X40758857Y-38768571D01*
X40473142Y-38768571D01*
X40330285Y-38697142D01*
X40258857Y-38554285D01*
X40258857Y-37982857D01*
X40330285Y-37840000D01*
X40473142Y-37768571D01*
X40758857Y-37768571D01*
X40901714Y-37840000D01*
X40973142Y-37982857D01*
X40973142Y-38125714D01*
X40258857Y-38268571D01*
X41544571Y-38697142D02*
X41687428Y-38768571D01*
X41973142Y-38768571D01*
X42116000Y-38697142D01*
X42187428Y-38554285D01*
X42187428Y-38482857D01*
X42116000Y-38340000D01*
X41973142Y-38268571D01*
X41758857Y-38268571D01*
X41616000Y-38197142D01*
X41544571Y-38054285D01*
X41544571Y-37982857D01*
X41616000Y-37840000D01*
X41758857Y-37768571D01*
X41973142Y-37768571D01*
X42116000Y-37840000D01*
X42758857Y-38697142D02*
X42901714Y-38768571D01*
X43187428Y-38768571D01*
X43330285Y-38697142D01*
X43401714Y-38554285D01*
X43401714Y-38482857D01*
X43330285Y-38340000D01*
X43187428Y-38268571D01*
X42973142Y-38268571D01*
X42830285Y-38197142D01*
X42758857Y-38054285D01*
X42758857Y-37982857D01*
X42830285Y-37840000D01*
X42973142Y-37768571D01*
X43187428Y-37768571D01*
X43330285Y-37840000D01*
X34401714Y-41318571D02*
X34401714Y-39818571D01*
X34758857Y-39818571D01*
X34973142Y-39890000D01*
X35116000Y-40032857D01*
X35187428Y-40175714D01*
X35258857Y-40461428D01*
X35258857Y-40675714D01*
X35187428Y-40961428D01*
X35116000Y-41104285D01*
X34973142Y-41247142D01*
X34758857Y-41318571D01*
X34401714Y-41318571D01*
X35830285Y-41247142D02*
X36044571Y-41318571D01*
X36401714Y-41318571D01*
X36544571Y-41247142D01*
X36616000Y-41175714D01*
X36687428Y-41032857D01*
X36687428Y-40890000D01*
X36616000Y-40747142D01*
X36544571Y-40675714D01*
X36401714Y-40604285D01*
X36116000Y-40532857D01*
X35973142Y-40461428D01*
X35901714Y-40390000D01*
X35830285Y-40247142D01*
X35830285Y-40104285D01*
X35901714Y-39961428D01*
X35973142Y-39890000D01*
X36116000Y-39818571D01*
X36473142Y-39818571D01*
X36687428Y-39890000D01*
X38116000Y-41318571D02*
X37258857Y-41318571D01*
X37687428Y-41318571D02*
X37687428Y-39818571D01*
X37544571Y-40032857D01*
X37401714Y-40175714D01*
X37258857Y-40247142D01*
X38973142Y-40461428D02*
X38830285Y-40390000D01*
X38758857Y-40318571D01*
X38687428Y-40175714D01*
X38687428Y-40104285D01*
X38758857Y-39961428D01*
X38830285Y-39890000D01*
X38973142Y-39818571D01*
X39258857Y-39818571D01*
X39401714Y-39890000D01*
X39473142Y-39961428D01*
X39544571Y-40104285D01*
X39544571Y-40175714D01*
X39473142Y-40318571D01*
X39401714Y-40390000D01*
X39258857Y-40461428D01*
X38973142Y-40461428D01*
X38830285Y-40532857D01*
X38758857Y-40604285D01*
X38687428Y-40747142D01*
X38687428Y-41032857D01*
X38758857Y-41175714D01*
X38830285Y-41247142D01*
X38973142Y-41318571D01*
X39258857Y-41318571D01*
X39401714Y-41247142D01*
X39473142Y-41175714D01*
X39544571Y-41032857D01*
X39544571Y-40747142D01*
X39473142Y-40604285D01*
X39401714Y-40532857D01*
X39258857Y-40461428D01*
X40687428Y-40532857D02*
X40901714Y-40604285D01*
X40973142Y-40675714D01*
X41044571Y-40818571D01*
X41044571Y-41032857D01*
X40973142Y-41175714D01*
X40901714Y-41247142D01*
X40758857Y-41318571D01*
X40187428Y-41318571D01*
X40187428Y-39818571D01*
X40687428Y-39818571D01*
X40830285Y-39890000D01*
X40901714Y-39961428D01*
X40973142Y-40104285D01*
X40973142Y-40247142D01*
X40901714Y-40390000D01*
X40830285Y-40461428D01*
X40687428Y-40532857D01*
X40187428Y-40532857D01*
X41615999Y-39961428D02*
X41687428Y-39890000D01*
X41830285Y-39818571D01*
X42187428Y-39818571D01*
X42330285Y-39890000D01*
X42401714Y-39961428D01*
X42473142Y-40104285D01*
X42473142Y-40247142D01*
X42401714Y-40461428D01*
X41544571Y-41318571D01*
X42473142Y-41318571D01*
X43401714Y-39818571D02*
X43544571Y-39818571D01*
X43687428Y-39890000D01*
X43758857Y-39961428D01*
X43830285Y-40104285D01*
X43901714Y-40390000D01*
X43901714Y-40747142D01*
X43830285Y-41032857D01*
X43758857Y-41175714D01*
X43687428Y-41247142D01*
X43544571Y-41318571D01*
X43401714Y-41318571D01*
X43258857Y-41247142D01*
X43187428Y-41175714D01*
X43115999Y-41032857D01*
X43044571Y-40747142D01*
X43044571Y-40390000D01*
X43115999Y-40104285D01*
X43187428Y-39961428D01*
X43258857Y-39890000D01*
X43401714Y-39818571D01*
X36830285Y-42368571D02*
X37330285Y-43868571D01*
X37830285Y-42368571D01*
X38258857Y-42511428D02*
X38330285Y-42440000D01*
X38473142Y-42368571D01*
X38830285Y-42368571D01*
X38973142Y-42440000D01*
X39044571Y-42511428D01*
X39116000Y-42654285D01*
X39116000Y-42797142D01*
X39044571Y-43011428D01*
X38187428Y-43868571D01*
X39116000Y-43868571D01*
X39758857Y-43725714D02*
X39830285Y-43797142D01*
X39758857Y-43868571D01*
X39687428Y-43797142D01*
X39758857Y-43725714D01*
X39758857Y-43868571D01*
X40330285Y-42368571D02*
X41258857Y-42368571D01*
X40758857Y-42940000D01*
X40973142Y-42940000D01*
X41116000Y-43011428D01*
X41187428Y-43082857D01*
X41258857Y-43225714D01*
X41258857Y-43582857D01*
X41187428Y-43725714D01*
X41116000Y-43797142D01*
X40973142Y-43868571D01*
X40544571Y-43868571D01*
X40401714Y-43797142D01*
X40330285Y-43725714D01*
D13*
X28575000Y-32385000D02*
X43815000Y-32385000D01*
X28575000Y-24765000D02*
X43815000Y-24765000D01*
X28575000Y-31115000D02*
X43815000Y-31115000D01*
X43815000Y-32385000D02*
X43815000Y-24765000D01*
X28575000Y-32385000D02*
X28575000Y-24765000D01*
X33515000Y-45195000D02*
X33515000Y-40005000D01*
X28715000Y-45195000D02*
X33515000Y-45195000D01*
X28715000Y-40005000D02*
X28715000Y-45195000D01*
X33515000Y-40005000D02*
X28715000Y-40005000D01*
X29845000Y-37215000D02*
X29845000Y-40005000D01*
X31115000Y-37215000D02*
X31115000Y-40005000D01*
X32385000Y-37215000D02*
X32385000Y-40005000D01*
X38463000Y-49895000D02*
X38463000Y-47895000D01*
X42563000Y-49895000D02*
X38463000Y-49895000D01*
X42563000Y-47895000D02*
X42563000Y-49895000D01*
X38463000Y-47895000D02*
X42563000Y-47895000D01*
D10*
X29233904Y-32202380D02*
X29233904Y-31202380D01*
X29614857Y-31202380D01*
X29710095Y-31250000D01*
X29757714Y-31297619D01*
X29805333Y-31392857D01*
X29805333Y-31535714D01*
X29757714Y-31630952D01*
X29710095Y-31678571D01*
X29614857Y-31726190D01*
X29233904Y-31726190D01*
X30186285Y-31297619D02*
X30233904Y-31250000D01*
X30329142Y-31202380D01*
X30567238Y-31202380D01*
X30662476Y-31250000D01*
X30710095Y-31297619D01*
X30757714Y-31392857D01*
X30757714Y-31488095D01*
X30710095Y-31630952D01*
X30138666Y-32202380D01*
X30757714Y-32202380D01*
X28479761Y-38647619D02*
X28384523Y-38600000D01*
X28289285Y-38504761D01*
X28146428Y-38361904D01*
X28051190Y-38314285D01*
X27955952Y-38314285D01*
X28003571Y-38552380D02*
X27908333Y-38504761D01*
X27813095Y-38409523D01*
X27765476Y-38219047D01*
X27765476Y-37885714D01*
X27813095Y-37695238D01*
X27908333Y-37600000D01*
X28003571Y-37552380D01*
X28194047Y-37552380D01*
X28289285Y-37600000D01*
X28384523Y-37695238D01*
X28432142Y-37885714D01*
X28432142Y-38219047D01*
X28384523Y-38409523D01*
X28289285Y-38504761D01*
X28194047Y-38552380D01*
X28003571Y-38552380D01*
X29384523Y-38552380D02*
X28813095Y-38552380D01*
X29098809Y-38552380D02*
X29098809Y-37552380D01*
X29003571Y-37695238D01*
X28908333Y-37790476D01*
X28813095Y-37838095D01*
X32948333Y-42743428D02*
X32805476Y-42695809D01*
X32757857Y-42648190D01*
X32710238Y-42552952D01*
X32710238Y-42410095D01*
X32757857Y-42314857D01*
X32805476Y-42267238D01*
X32900714Y-42219619D01*
X33281666Y-42219619D01*
X33281666Y-43219619D01*
X32948333Y-43219619D01*
X32853095Y-43172000D01*
X32805476Y-43124380D01*
X32757857Y-43029142D01*
X32757857Y-42933904D01*
X32805476Y-42838666D01*
X32853095Y-42791047D01*
X32948333Y-42743428D01*
X33281666Y-42743428D01*
X32329285Y-42267238D02*
X32186428Y-42219619D01*
X31948333Y-42219619D01*
X31853095Y-42267238D01*
X31805476Y-42314857D01*
X31757857Y-42410095D01*
X31757857Y-42505333D01*
X31805476Y-42600571D01*
X31853095Y-42648190D01*
X31948333Y-42695809D01*
X32138809Y-42743428D01*
X32234047Y-42791047D01*
X32281666Y-42838666D01*
X32329285Y-42933904D01*
X32329285Y-43029142D01*
X32281666Y-43124380D01*
X32234047Y-43172000D01*
X32138809Y-43219619D01*
X31900714Y-43219619D01*
X31757857Y-43172000D01*
X30805476Y-42219619D02*
X31376904Y-42219619D01*
X31091190Y-42219619D02*
X31091190Y-43219619D01*
X31186428Y-43076761D01*
X31281666Y-42981523D01*
X31376904Y-42933904D01*
X30472142Y-43219619D02*
X29805476Y-43219619D01*
X30234047Y-42219619D01*
X29234047Y-43219619D02*
X29138809Y-43219619D01*
X29043571Y-43172000D01*
X28995952Y-43124380D01*
X28948333Y-43029142D01*
X28900714Y-42838666D01*
X28900714Y-42600571D01*
X28948333Y-42410095D01*
X28995952Y-42314857D01*
X29043571Y-42267238D01*
X29138809Y-42219619D01*
X29234047Y-42219619D01*
X29329285Y-42267238D01*
X29376904Y-42314857D01*
X29424523Y-42410095D01*
X29472142Y-42600571D01*
X29472142Y-42838666D01*
X29424523Y-43029142D01*
X29376904Y-43124380D01*
X29329285Y-43172000D01*
X29234047Y-43219619D01*
X42779666Y-48347380D02*
X43398714Y-48347380D01*
X43065380Y-48728333D01*
X43208238Y-48728333D01*
X43303476Y-48775952D01*
X43351095Y-48823571D01*
X43398714Y-48918809D01*
X43398714Y-49156904D01*
X43351095Y-49252142D01*
X43303476Y-49299761D01*
X43208238Y-49347380D01*
X42922523Y-49347380D01*
X42827285Y-49299761D01*
X42779666Y-49252142D01*
X38198714Y-49347380D02*
X37627285Y-49347380D01*
X37913000Y-49347380D02*
X37913000Y-48347380D01*
X37817761Y-48490238D01*
X37722523Y-48585476D01*
X37627285Y-48633095D01*
M02*
